<?xml version="1.0" standalone="no"?>
<!DOCTYPE svg PUBLIC "-//W3C//DTD SVG 20010904//EN"
 "http://www.w3.org/TR/2001/REC-SVG-20010904/DTD/svg10.dtd">
<svg version="1.0" xmlns="http://www.w3.org/2000/svg"
 width="3718.000000pt" height="3718.000000pt" viewBox="0 0 3718.000000 3718.000000"
 preserveAspectRatio="xMidYMid meet">
<metadata>
Created by potrace 1.14, written by Peter Selinger 2001-2017
</metadata>
<g transform="translate(0.000000,3718.000000) scale(0.100000,-0.100000)"
fill="#000000" stroke="none">
<path d="M17398 37115 c-1 -2 -142 -6 -313 -10 -170 -3 -366 -8 -435 -10 -69
-2 -210 -6 -315 -10 -104 -3 -237 -8 -295 -10 -58 -3 -166 -7 -240 -10 -74 -3
-175 -8 -225 -10 -49 -3 -135 -7 -190 -10 -100 -4 -269 -12 -400 -20 -38 -2
-115 -7 -170 -10 -55 -3 -129 -8 -165 -10 -36 -3 -108 -7 -160 -10 -52 -3
-120 -8 -150 -10 -30 -2 -93 -7 -140 -10 -47 -3 -107 -7 -135 -10 -46 -4 -98
-8 -265 -20 -36 -3 -87 -7 -115 -9 -27 -3 -86 -7 -130 -11 -85 -7 -117 -10
-230 -20 -38 -4 -91 -8 -117 -10 -26 -2 -69 -6 -95 -9 -26 -3 -82 -8 -123 -11
-41 -4 -86 -8 -100 -10 -14 -2 -61 -6 -105 -10 -44 -3 -91 -8 -105 -10 -24 -3
-71 -8 -197 -21 -58 -5 -192 -20 -358 -40 -27 -3 -68 -7 -89 -9 -22 -2 -62 -6
-90 -10 -28 -3 -68 -8 -88 -11 -21 -2 -55 -6 -75 -9 -21 -2 -94 -11 -163 -20
-69 -9 -142 -18 -162 -20 -21 -3 -57 -7 -80 -10 -24 -3 -54 -8 -68 -10 -14 -2
-49 -7 -79 -10 -30 -4 -62 -8 -72 -10 -10 -2 -44 -6 -76 -10 -32 -3 -65 -8
-73 -10 -8 -2 -37 -6 -65 -10 -27 -3 -61 -7 -75 -10 -14 -2 -45 -7 -70 -10
-25 -3 -54 -7 -65 -9 -11 -2 -42 -7 -70 -10 -27 -4 -61 -9 -75 -11 -14 -2 -88
-14 -165 -25 -77 -12 -151 -23 -165 -26 -14 -2 -54 -9 -90 -14 -36 -5 -76 -12
-90 -15 -13 -2 -42 -7 -65 -11 -22 -3 -89 -14 -150 -24 -60 -10 -123 -21 -140
-24 -101 -17 -214 -37 -235 -41 -30 -6 -68 -13 -112 -20 -29 -5 -244 -46 -318
-60 -14 -3 -38 -8 -55 -10 -16 -3 -95 -19 -175 -35 -80 -16 -159 -31 -175 -34
-17 -3 -105 -21 -195 -41 -91 -19 -178 -38 -195 -41 -26 -4 -53 -10 -135 -29
-8 -2 -49 -11 -90 -20 -101 -22 -81 -18 -305 -70 -191 -44 -323 -77 -538 -130
-54 -14 -99 -25 -101 -25 -3 0 -1 -102 9 -505 11 -457 13 -568 19 -755 3 -96
8 -254 11 -350 6 -187 11 -351 20 -600 3 -85 8 -216 10 -290 3 -74 7 -191 10
-260 3 -69 7 -188 10 -265 3 -77 8 -192 11 -255 3 -63 7 -164 9 -225 6 -152
15 -356 20 -445 2 -41 7 -142 10 -225 3 -82 8 -195 10 -250 12 -239 15 -297
20 -425 3 -74 8 -166 10 -205 2 -38 7 -128 10 -200 3 -71 8 -161 10 -200 2
-38 7 -131 10 -205 3 -74 8 -166 10 -205 3 -38 7 -126 10 -195 5 -120 8 -174
20 -380 5 -88 9 -175 20 -405 3 -49 7 -128 9 -175 3 -47 7 -134 11 -195 3 -60
7 -150 10 -200 3 -49 7 -135 10 -190 6 -121 12 -221 19 -358 3 -56 8 -147 11
-202 3 -55 8 -134 10 -175 3 -41 7 -122 10 -180 4 -100 7 -138 21 -380 3 -58
7 -139 9 -180 2 -41 6 -113 9 -160 3 -47 8 -137 11 -200 3 -63 8 -153 10 -200
3 -47 7 -128 10 -180 3 -52 7 -133 10 -180 2 -47 7 -132 10 -190 3 -58 8 -145
11 -195 2 -49 7 -133 9 -185 3 -52 7 -133 10 -180 2 -47 7 -130 10 -185 2 -55
7 -145 10 -200 3 -55 7 -136 10 -180 3 -44 7 -132 11 -195 3 -63 7 -146 9
-185 2 -38 7 -124 10 -190 3 -66 7 -149 10 -185 2 -36 6 -128 10 -205 3 -77 7
-174 10 -215 5 -82 13 -235 20 -400 3 -58 7 -148 10 -200 3 -52 7 -147 10
-210 3 -63 8 -158 10 -210 3 -52 7 -147 10 -210 3 -63 7 -155 10 -205 2 -49 7
-148 10 -220 5 -122 8 -178 20 -435 2 -58 7 -168 10 -245 3 -77 7 -180 10
-230 3 -49 7 -155 10 -235 3 -80 7 -192 10 -250 3 -58 7 -170 10 -250 3 -80 8
-197 10 -260 7 -172 14 -365 20 -550 3 -91 7 -219 10 -285 7 -181 18 -515 30
-945 13 -464 15 -545 20 -735 10 -400 22 -981 31 -1635 14 -930 8 -3112 -11
-3835 -2 -77 -7 -248 -10 -380 -11 -426 -14 -527 -20 -690 -3 -88 -8 -221 -10
-295 -2 -74 -7 -198 -10 -275 -4 -77 -8 -176 -10 -220 -7 -181 -17 -394 -20
-455 -2 -36 -7 -126 -10 -200 -3 -74 -8 -160 -10 -190 -2 -30 -7 -107 -10
-170 -3 -63 -8 -146 -11 -185 -2 -38 -6 -115 -9 -170 -3 -55 -7 -125 -10 -155
-2 -30 -7 -98 -10 -150 -5 -97 -12 -201 -20 -300 -2 -30 -7 -98 -10 -150 -3
-52 -8 -111 -10 -130 -2 -19 -6 -78 -10 -130 -3 -52 -8 -115 -10 -140 -3 -25
-7 -85 -11 -135 -4 -49 -8 -103 -9 -120 -2 -16 -6 -68 -9 -115 -4 -47 -8 -101
-11 -120 -2 -19 -7 -71 -10 -115 -4 -44 -8 -93 -10 -110 -2 -16 -7 -68 -10
-115 -4 -47 -8 -92 -10 -100 -2 -8 -6 -58 -10 -110 -4 -52 -9 -103 -11 -113
-1 -10 -6 -56 -9 -103 -3 -46 -8 -94 -10 -106 -3 -12 -7 -53 -10 -92 -3 -39
-8 -82 -10 -96 -2 -14 -7 -56 -10 -95 -3 -38 -7 -77 -9 -85 -3 -8 -7 -51 -11
-95 -4 -44 -8 -93 -10 -110 -2 -16 -7 -52 -10 -80 -3 -27 -8 -63 -10 -80 -2
-16 -7 -57 -10 -90 -4 -33 -8 -73 -10 -90 -6 -42 -13 -104 -25 -215 -6 -52
-12 -102 -15 -110 -2 -8 -6 -44 -10 -80 -3 -36 -7 -76 -9 -90 -3 -14 -7 -47
-11 -75 -3 -27 -8 -63 -10 -80 -3 -16 -7 -48 -9 -71 -3 -22 -7 -56 -10 -75 -3
-19 -8 -54 -11 -79 -6 -55 -16 -125 -20 -148 -2 -9 -4 -29 -4 -44 -1 -19 -6
-27 -18 -26 -10 0 -47 -5 -83 -12 -36 -6 -74 -14 -85 -15 -42 -7 -337 -52
-395 -60 -25 -3 -85 -12 -135 -20 -49 -7 -115 -17 -145 -21 -30 -3 -64 -8 -75
-10 -11 -2 -38 -6 -60 -9 -22 -2 -53 -7 -70 -10 -16 -3 -50 -7 -75 -10 -46 -5
-106 -13 -150 -20 -14 -2 -47 -6 -75 -10 -72 -8 -120 -14 -200 -25 -38 -5 -90
-12 -115 -15 -87 -10 -136 -16 -205 -25 -38 -5 -92 -12 -120 -15 -27 -3 -86
-11 -130 -16 -44 -6 -96 -12 -115 -15 -19 -2 -91 -11 -160 -19 -69 -9 -145
-18 -170 -21 -25 -3 -56 -7 -70 -9 -14 -2 -52 -7 -85 -10 -33 -4 -67 -8 -75
-10 -8 -2 -44 -7 -80 -10 -36 -4 -72 -8 -80 -10 -8 -1 -44 -6 -80 -10 -36 -4
-74 -9 -85 -11 -11 -2 -44 -7 -74 -10 -30 -3 -62 -7 -70 -9 -9 -2 -45 -6 -81
-10 -36 -4 -67 -8 -70 -10 -3 -2 -34 -6 -70 -10 -36 -4 -72 -9 -81 -10 -9 -2
-40 -6 -70 -10 -30 -3 -81 -10 -114 -15 -56 -9 -80 -12 -180 -26 -54 -7 -60
-8 -290 -44 -110 -17 -213 -33 -230 -35 -16 -3 -41 -7 -55 -9 -14 -3 -65 -12
-115 -20 -49 -9 -101 -18 -115 -21 -13 -2 -42 -7 -65 -10 -22 -4 -56 -10 -75
-15 -19 -5 -55 -12 -80 -15 -24 -4 -47 -8 -50 -10 -3 -2 -24 -6 -47 -10 -23
-3 -115 -22 -205 -41 -90 -20 -174 -38 -188 -40 -14 -3 -43 -10 -65 -16 -22
-5 -49 -12 -60 -14 -23 -4 -295 -78 -370 -100 -27 -8 -57 -16 -65 -18 -53 -14
-305 -101 -405 -141 -126 -50 -339 -152 -386 -186 -15 -10 -30 -19 -34 -19 -7
0 -116 -73 -148 -99 -239 -195 -346 -365 -362 -581 -4 -49 -1 -60 29 -105 96
-144 311 -307 587 -445 248 -125 683 -285 1034 -381 91 -25 376 -100 395 -104
8 -2 62 -15 120 -29 58 -14 123 -28 145 -32 22 -3 43 -8 46 -10 7 -4 358 -78
421 -89 18 -3 76 -14 128 -25 52 -11 111 -22 130 -25 19 -3 61 -10 92 -16 32
-5 70 -12 85 -15 16 -2 39 -7 53 -10 14 -3 36 -7 50 -9 37 -5 93 -15 110 -20
8 -2 35 -6 60 -9 25 -4 56 -8 70 -10 25 -5 239 -39 315 -51 22 -4 54 -8 70
-10 17 -3 46 -7 65 -10 19 -3 53 -7 75 -10 22 -3 58 -8 80 -12 22 -3 49 -7 60
-8 11 -2 57 -8 102 -14 46 -7 97 -14 115 -16 18 -2 49 -6 68 -9 19 -3 53 -8
75 -11 22 -3 56 -7 75 -10 19 -2 58 -7 85 -10 28 -3 61 -8 75 -10 14 -2 52 -6
85 -10 58 -6 86 -10 158 -19 17 -3 59 -8 92 -11 33 -3 94 -10 135 -15 41 -5
98 -12 125 -15 28 -2 68 -7 90 -9 22 -3 67 -8 100 -11 33 -3 76 -8 95 -10 19
-2 64 -7 100 -10 36 -4 76 -8 90 -10 14 -2 59 -6 100 -10 41 -3 86 -8 100 -10
14 -2 59 -7 100 -10 41 -3 84 -7 95 -9 11 -2 61 -7 110 -10 50 -4 106 -9 125
-11 37 -4 117 -11 215 -20 33 -2 85 -7 115 -9 30 -3 91 -8 135 -12 44 -3 98
-8 120 -10 22 -2 72 -6 110 -9 39 -3 95 -7 125 -10 106 -9 196 -15 267 -20 39
-3 93 -7 120 -9 26 -3 93 -8 148 -11 55 -4 122 -8 148 -11 27 -2 90 -6 141 -9
50 -3 116 -7 146 -10 30 -2 102 -7 160 -10 58 -3 134 -8 170 -10 81 -6 183
-12 325 -20 61 -3 142 -7 180 -10 39 -2 126 -7 195 -11 69 -3 150 -7 180 -9
30 -2 118 -7 195 -10 77 -4 172 -8 210 -10 157 -9 388 -19 660 -30 72 -3 180
-7 240 -10 175 -8 501 -19 820 -30 338 -11 454 -14 670 -20 121 -3 299 -8 395
-10 190 -5 638 -14 955 -20 1040 -19 3349 -25 4440 -11 867 11 1664 25 2245
41 107 3 285 8 395 10 427 12 832 24 1000 30 66 3 199 7 295 10 221 8 361 13
520 20 69 3 184 8 255 10 136 5 301 12 495 20 63 3 165 8 225 10 160 7 324 14
428 20 51 2 146 7 212 10 66 3 158 8 205 10 91 5 219 12 395 20 61 3 146 8
190 10 131 8 244 14 350 20 55 3 136 7 180 10 44 3 118 7 165 10 172 10 257
15 325 20 39 2 113 7 165 10 52 3 127 8 165 10 39 3 108 7 155 10 47 3 117 7
155 10 39 3 106 7 150 10 44 3 107 8 140 10 33 3 98 8 145 10 47 3 114 7 150
10 36 3 99 7 140 10 41 3 103 8 136 11 34 3 92 7 130 9 68 4 170 12 269 20 28
3 88 7 135 10 47 3 101 7 120 10 19 2 73 7 120 10 112 7 206 15 255 20 22 3
76 7 120 10 80 6 147 11 240 19 102 10 181 17 220 20 22 2 76 7 120 10 44 4
91 8 105 11 14 2 63 7 110 10 47 3 99 7 115 9 17 2 62 7 100 10 39 4 90 9 115
11 25 3 72 7 105 10 33 3 81 7 108 10 78 8 138 14 207 20 36 4 79 8 96 10 17
2 66 7 110 10 43 3 86 8 94 10 8 2 51 7 95 11 44 3 88 8 97 9 9 2 49 6 90 10
40 3 84 8 98 10 14 2 54 7 90 10 36 3 83 8 105 12 22 3 53 7 70 8 36 2 150 15
185 20 14 2 56 7 95 10 38 4 76 8 85 10 8 1 44 6 80 9 70 8 130 15 170 21 14
2 54 6 90 10 36 3 72 8 80 10 8 2 42 6 75 10 89 9 205 23 245 30 14 2 50 7 80
10 30 3 66 8 80 10 14 2 50 7 80 10 30 4 63 9 72 10 9 2 41 6 70 9 82 9 131
16 158 21 14 2 45 7 70 10 45 5 111 15 140 20 8 1 44 6 80 11 36 4 67 8 70 9
3 1 32 5 65 9 33 5 67 10 75 11 26 4 104 16 130 20 14 2 43 6 65 10 40 6 78
11 145 21 19 2 76 11 125 20 50 8 104 17 120 20 17 3 37 7 45 9 8 2 40 7 70
10 30 4 57 8 60 10 3 2 24 6 46 9 22 4 51 9 64 11 14 3 39 8 55 10 114 20 361
68 365 70 3 2 26 6 50 10 25 4 126 25 225 47 99 22 187 41 195 43 44 9 364 92
486 125 194 54 549 172 649 216 17 7 59 25 95 39 118 49 335 161 436 227 141
92 236 174 334 288 66 77 129 229 137 332 l6 67 -85 83 c-102 101 -179 155
-371 256 -122 65 -460 194 -637 243 -25 7 -49 14 -55 15 -52 17 -375 99 -465
120 -147 33 -117 27 -325 68 -99 20 -202 40 -230 46 -27 5 -66 12 -85 15 -19
4 -114 20 -210 36 -185 32 -201 34 -265 44 -23 3 -50 7 -60 9 -11 2 -40 7 -65
10 -25 3 -54 8 -66 10 -12 2 -45 7 -75 11 -30 3 -61 8 -69 10 -8 2 -39 7 -69
10 -30 4 -62 8 -71 10 -9 2 -41 6 -71 10 -30 3 -65 8 -79 10 -14 2 -45 7 -70
10 -25 4 -56 8 -70 10 -14 2 -47 6 -75 10 -27 3 -86 10 -130 16 -76 10 -100
13 -177 23 -18 3 -60 8 -93 12 -33 3 -68 8 -77 9 -9 2 -48 7 -85 10 -37 4 -75
9 -83 10 -21 4 -116 15 -160 19 -19 2 -49 6 -65 9 -17 3 -61 9 -98 12 -37 4
-76 8 -85 10 -9 1 -48 6 -87 9 -38 4 -77 9 -85 11 -8 2 -44 6 -80 10 -36 3
-76 7 -90 9 -14 3 -52 7 -85 11 -33 3 -116 13 -185 21 -69 8 -141 17 -160 19
-19 2 -73 8 -120 14 -47 6 -112 13 -145 16 -33 3 -71 8 -85 10 -14 3 -47 7
-75 10 -27 3 -86 10 -130 16 -44 5 -97 12 -117 14 -21 3 -55 7 -75 10 -21 2
-76 9 -123 15 -47 6 -103 13 -125 16 -22 3 -57 7 -77 9 -20 3 -49 7 -65 9 -29
5 -158 23 -228 31 -74 9 -120 16 -145 20 -14 2 -45 7 -70 10 -25 3 -72 10
-105 15 -33 5 -78 12 -100 15 -22 4 -78 13 -125 20 -47 8 -103 17 -125 20 -42
7 -56 9 -120 20 -78 13 -73 4 -75 133 -3 121 -4 154 -14 507 -10 309 -15 473
-21 735 -3 129 -8 318 -10 420 -9 360 -18 857 -31 1700 -10 631 -11 3767 -1
4425 16 1045 23 1431 42 2155 3 107 8 272 10 365 2 94 7 258 11 365 3 107 7
251 9 320 3 118 8 256 20 585 3 77 7 203 10 280 3 77 7 194 10 260 3 66 7 179
10 250 8 228 22 572 30 725 3 58 7 159 10 225 3 66 8 163 10 215 3 52 7 147
10 210 6 124 12 256 20 415 3 55 8 143 10 195 5 95 10 191 20 370 12 226 15
289 19 360 3 41 8 127 11 190 4 63 8 147 10 185 3 39 7 108 9 155 3 47 8 123
10 170 3 47 8 126 11 175 3 50 7 122 10 160 3 39 7 108 10 155 2 47 7 119 10
160 7 115 14 217 21 331 3 57 7 120 9 139 2 19 7 89 10 155 4 66 8 136 10 155
2 19 6 85 10 145 4 61 8 126 10 145 2 19 6 80 10 135 3 55 8 123 10 150 2 28
7 88 10 135 4 47 8 112 11 145 3 33 7 92 9 130 8 120 16 228 20 275 3 25 7 83
10 130 3 47 7 105 9 130 3 25 7 86 10 135 4 50 9 110 11 135 2 25 7 81 10 125
3 44 8 103 10 130 2 28 7 82 10 120 9 111 15 196 21 255 2 30 7 84 9 120 3 36
7 90 10 120 2 30 7 91 11 135 3 44 7 96 9 115 2 19 6 71 10 115 3 44 8 96 10
115 4 31 10 109 20 245 5 58 15 171 21 235 5 56 9 101 19 225 3 39 7 88 10
110 4 37 7 65 20 225 3 30 8 78 10 105 3 28 8 79 10 115 3 36 7 83 10 105 2
22 7 72 10 110 3 39 8 90 11 115 2 25 6 74 9 110 3 36 8 85 10 110 6 58 13
130 20 205 3 33 8 78 10 100 3 22 7 72 10 110 3 39 8 88 10 110 3 22 7 65 10
95 2 30 6 75 9 100 3 25 8 77 11 115 3 39 8 84 10 100 4 32 10 95 20 210 4 39
8 81 11 95 2 14 6 58 10 98 3 40 7 82 9 93 2 11 7 57 10 102 3 45 8 93 10 107
2 14 6 52 9 85 9 91 16 165 22 215 13 123 15 148 19 180 2 19 7 64 10 100 6
63 9 99 20 195 11 96 14 132 20 190 3 33 7 71 10 85 2 14 7 60 10 103 4 43 8
86 10 95 2 16 7 62 21 197 3 28 7 66 9 85 2 19 7 58 10 85 2 28 7 68 9 90 3
22 8 67 11 100 3 33 8 71 10 85 2 14 7 54 10 90 3 36 8 81 10 100 2 19 7 60
10 90 3 30 8 71 10 90 3 19 7 62 11 95 3 33 7 71 9 85 2 14 6 50 10 80 3 30 8
71 10 90 2 19 7 58 10 85 2 28 7 68 9 90 3 22 8 67 11 100 4 33 8 71 10 85 2
14 7 52 10 85 3 33 8 76 10 95 3 19 9 76 15 125 6 50 12 106 15 125 2 19 7 60
10 90 3 30 8 71 11 90 2 19 6 58 9 85 3 28 8 70 11 95 3 25 7 62 10 83 2 20 6
54 9 75 14 117 25 203 29 245 4 26 8 66 11 90 3 23 7 62 10 87 8 71 16 132 20
165 5 35 23 189 31 255 3 25 7 59 9 75 2 17 7 57 10 90 4 33 8 71 10 85 10 66
31 238 40 320 3 30 8 66 10 80 2 14 7 50 10 80 9 86 14 125 30 240 2 19 7 55
9 80 6 50 14 114 50 400 14 107 27 218 31 245 3 28 7 61 10 75 2 14 7 50 10
80 3 30 8 66 10 80 2 14 6 50 10 80 4 30 8 66 10 80 2 14 7 49 10 79 4 30 8
61 10 70 1 9 6 45 10 81 3 36 8 72 10 80 2 8 6 42 10 75 3 33 8 67 10 75 2 8
6 42 10 75 3 33 8 71 10 85 2 14 7 45 10 70 3 25 7 61 10 80 3 19 7 58 10 85
3 28 9 60 12 73 3 12 2 22 -2 22 -3 0 -75 14 -158 31 -193 39 -196 40 -337 66
-14 2 -56 10 -95 18 -64 12 -104 19 -175 31 -14 3 -36 7 -50 9 -61 13 -81 16
-190 35 -63 11 -126 22 -140 25 -62 12 -77 15 -115 20 -22 3 -51 7 -65 10 -43
8 -82 15 -185 31 -55 8 -111 17 -125 20 -14 2 -41 7 -60 10 -19 3 -75 12 -125
20 -49 9 -106 18 -125 20 -54 7 -102 14 -225 34 -68 11 -121 19 -180 26 -22 3
-62 9 -90 14 -27 5 -72 12 -100 15 -82 10 -117 15 -144 20 -33 5 -300 42 -366
50 -27 4 -57 8 -65 10 -8 2 -42 7 -75 10 -33 4 -71 8 -85 11 -29 5 -75 11
-145 19 -27 3 -61 7 -75 9 -14 2 -52 7 -85 11 -32 4 -66 8 -75 10 -8 2 -44 6
-80 10 -36 3 -94 10 -130 15 -36 5 -91 12 -123 15 -32 4 -68 8 -80 11 -12 2
-51 7 -85 10 -35 3 -72 7 -82 9 -11 2 -50 7 -87 10 -37 4 -76 9 -85 10 -9 2
-48 7 -85 10 -37 4 -79 8 -93 11 -14 2 -54 6 -90 10 -36 3 -75 7 -88 9 -13 2
-53 7 -90 10 -37 3 -80 8 -97 10 -32 5 -81 10 -180 20 -33 3 -78 8 -100 10
-22 2 -67 7 -100 10 -33 3 -78 8 -100 10 -92 10 -144 16 -205 20 -36 3 -78 7
-95 10 -16 2 -66 7 -110 10 -44 4 -90 8 -101 10 -12 2 -61 6 -110 10 -49 4
-100 8 -113 10 -14 3 -63 7 -110 10 -47 4 -97 8 -111 10 -14 2 -65 7 -115 10
-49 4 -106 8 -125 10 -19 2 -73 6 -120 10 -47 3 -101 8 -120 10 -19 2 -75 7
-125 10 -49 3 -110 8 -135 10 -25 3 -79 7 -120 10 -112 8 -208 15 -270 20 -30
3 -93 7 -140 10 -47 3 -110 8 -140 10 -30 2 -93 7 -140 10 -47 3 -119 7 -160
10 -41 3 -111 7 -155 10 -85 5 -184 11 -330 20 -49 3 -133 8 -185 10 -52 3
-138 7 -190 10 -112 7 -212 12 -375 20 -66 2 -165 7 -220 10 -268 13 -403 18
-740 30 -99 3 -229 8 -290 10 -60 2 -222 7 -360 11 -137 3 -297 8 -355 10
-132 5 -2627 14 -2632 9z"/>
</g>
</svg>
